<?xml version="1.0" standalone="no"?>
<!DOCTYPE svg PUBLIC "-//W3C//DTD SVG 20010904//EN"
 "http://www.w3.org/TR/2001/REC-SVG-20010904/DTD/svg10.dtd">
<svg version="1.0" xmlns="http://www.w3.org/2000/svg"
 width="1334.000000pt" height="1328.000000pt" viewBox="0 0 1334.000000 1328.000000"
 preserveAspectRatio="xMidYMid meet">
<metadata>
Created by potrace 1.16, written by Peter Selinger 2001-2019
</metadata>
<g transform="translate(0.000000,1328.000000) scale(0.100000,-0.100000)"
fill="#FFFFFF" stroke="none">
<path d="M6106 12504 c-9 -25 -7 -195 4 -276 15 -106 41 -356 50 -483 7 -91 6
-112 -6 -121 -8 -6 -56 -14 -107 -18 -133 -10 -330 -34 -417 -52 -41 -9 -97
-20 -125 -26 -143 -29 -260 -58 -314 -80 -14 -5 -43 -13 -65 -18 -23 -5 -63
-16 -91 -24 -27 -8 -90 -26 -138 -41 -49 -14 -96 -30 -105 -35 -10 -5 -48 -21
-87 -35 -242 -92 -587 -261 -776 -381 -21 -13 -42 -24 -47 -24 -4 0 -17 -7
-27 -15 -11 -8 -77 -55 -147 -103 -69 -48 -170 -121 -224 -162 -53 -41 -103
-79 -112 -85 -57 -38 -407 -362 -499 -461 -144 -156 -274 -306 -325 -374 -161
-217 -266 -369 -287 -415 -5 -11 -21 -35 -35 -54 -14 -19 -26 -39 -26 -44 0
-5 -18 -36 -40 -69 -22 -33 -40 -64 -40 -69 0 -18 -53 -118 -71 -135 -10 -9
-19 -25 -19 -35 0 -10 -5 -21 -10 -24 -6 -3 -19 -27 -31 -53 -12 -26 -38 -83
-58 -127 -21 -44 -42 -93 -48 -110 -6 -16 -26 -70 -46 -120 -20 -49 -42 -112
-51 -140 -8 -27 -19 -63 -25 -80 -5 -16 -19 -59 -30 -95 -11 -36 -29 -90 -41
-120 -21 -56 -49 -167 -70 -275 -6 -33 -16 -78 -21 -101 -8 -37 -24 -133 -49
-303 -6 -35 -13 -68 -17 -74 -34 -56 -36 -1071 -2 -1242 6 -27 14 -81 19 -120
14 -126 40 -300 46 -315 3 -8 10 -40 15 -70 4 -30 12 -75 17 -100 35 -172 45
-216 53 -224 5 -6 9 -18 9 -28 0 -9 6 -32 14 -50 8 -18 22 -62 31 -98 9 -36
23 -81 30 -100 18 -50 32 -100 40 -140 4 -19 11 -41 15 -50 5 -8 23 -51 40
-95 18 -44 47 -115 66 -157 19 -43 34 -80 34 -83 0 -8 71 -160 110 -235 90
-175 156 -297 172 -317 5 -7 22 -34 36 -62 23 -41 83 -140 152 -246 38 -60 97
-142 118 -165 12 -14 22 -28 22 -32 0 -4 26 -38 58 -75 31 -38 93 -113 137
-167 162 -202 430 -462 730 -707 64 -53 288 -207 367 -254 35 -21 175 -101
228 -131 132 -75 171 -94 189 -94 11 0 21 -4 23 -9 4 -11 132 -71 153 -71 8 0
15 5 15 10 0 6 -12 10 -28 10 -16 0 -32 8 -40 20 -7 11 -21 20 -32 20 -11 0
-20 3 -20 8 0 4 -24 18 -52 31 -29 14 -67 35 -85 48 -17 13 -37 23 -43 23
-14 0 -107 51 -190 105 -95 61 -261 172 -290 194 -14 10 -63 46 -110 79 -89
-
... (content truncated for brevity) ...
"/> 
</g>
</svg>
