<?xml version="1.0" standalone="no"?>
<!DOCTYPE svg PUBLIC "-//W3C//DTD SVG 20010904//EN"
 "http://www.w3.org/TR/2001/REC-SVG-20010904/DTD/svg10.dtd">
<svg version="1.0" xmlns="http://www.w3.org/2000/svg"
 width="1334.000000pt" height="1328.000000pt" viewBox="0 0 1334.000000 1328.000000"
 preserveAspectRatio="xMidYMid meet">
<metadata>
Created by potrace 1.16, written by Peter Selinger 2001-2019
</metadata>
<g transform="translate(0.000000,1328.000000) scale(0.100000,-0.100000)"
fill="#000000" stroke="none">
<path d="M6106 12504 c-9 -25 -7 -195 4 -276 15 -106 41 -356 50 -483 7 -91 6
-112 -6 -121 -8 -6 -56 -14 -107 -18 -133 -10 -330 -34 -417 -52 -41 -9 -97
-20 -125 -26 -143 -29 -260 -58 -314 -80 -14 -5 -43 -13 -65 -18 -23 -5 -63
-16 -91 -24 -27 -8 -90 -26 -138 -41 -49 -14 -96 -30 -105 -35 -10 -5 -48 -21
-87 -35 -242 -92 -587 -261 -776 -381 -21 -13 -42 -24 -47 -24 -4 0 -17 -7
-27 -15 -11 -8 -77 -55 -147 -103 -69 -48 -170 -121 -224 -162 -53 -41 -103
-79 -112 -85 -57 -38 -407 -362 -499 -461 -144 -156 -274 -306 -325 -374 -161
-217 -266 -369 -287 -415 -5 -11 -21 -35 -35 -54 -14 -19 -26 -39 -26 -44 0
-5 -18 -36 -40 -69 -22 -33 -40 -64 -40 -69 0 -18 -53 -118 -71 -135 -10 -9
-19 -25 -19 -35 0 -10 -5 -21 -10 -24 -6 -3 -19 -27 -31 -53 -12 -26 -38 -83
-58 -127 -21 -44 -42 -93 -48 -110 -6 -16 -26 -70 -46 -120 -20 -49 -42 -112
-51 -140 -8 -27 -19 -63 -25 -80 -5 -16 -19 -59 -30 -95 -11 -36 -29 -90 -41
-120 -21 -56 -49 -167 -70 -275 -6 -33 -16 -78 -21 -101 -8 -37 -24 -133 -49
-303 -6 -35 -13 -68 -17 -74 -34 -56 -36 -1071 -2 -1242 6 -27 14 -81 19 -120
14 -126 40 -300 46 -315 3 -8 10 -40 15 -70 4 -30 12 -75 17 -100 35 -172 45
-216 53 -224 5 -6 9 -18 9 -28 0 -9 6 -32 14 -50 8 -18 22 -62 31 -98 9 -36
23 -81 30 -100 18 -50 32 -100 40 -140 4 -19 11 -41 15 -50 5 -8 23 -51 40
-95 18 -44 47 -115 66 -157 19 -43 34 -80 34 -83 0 -8 71 -160 110 -235 90
-175 156 -297 172 -317 5 -7 22 -34 36 -62 23 -41 83 -140 152 -246 38 -60 97
-142 118 -165 12 -14 22 -28 22 -32 0 -4 26 -38 58 -75 31 -38 93 -113 137
-167 162 -202 430 -462 730 -707 64 -53 288 -207 367 -254 35 -21 175 -101
228 -131 132 -75 171 -94 189 -94 11 0 21 -4 23 -9 4 -11 132 -71 153 -71 8 0
15 5 15 10 0 6 -12 10 -28 10 -16 0 -32 8 -40 20 -7 11 -21 20 -32 20 -11 0
-20 3 -20 8 0 4 -24 18 -52 31 -29 14 -67 35 -85 48 -17 13 -37 23 -43 23 -14
0 -107 51 -190 105 -95 61 -261 172 -290 194 -14 10 -63 46 -110 79 -89 63
-96 70 -218 180 -167 150 -239 218 -285 266 -263 277 -322 343 -365 410 -15
23 -49 68 -77 101 -28 33 -59 71 -68 85 -77 113 -153 227 -156 235 -2 6 -17
26 -32 46 -16 20 -29 40 -29 44 0 3 -11 21 -24 38 -13 18 -27 42 -31 55 -3 12
-11 22 -16 22 -5 0 -9 9 -9 19 0 11 -5 23 -11 27 -15 9 -52 94 -45 101 3 3 9
-3 13 -13 4 -10 12 -24 17 -30 6 -6 31 -43 56 -83 75 -120 191 -281 275 -382
22 -26 63 -76 90 -110 230 -284 694 -727 935 -891 14 -10 52 -36 85 -59 118
-83 304 -205 356 -234 30 -16 74 -42 99 -56 73 -42 233 -131 260 -145 52 -26
201 -94 205 -94 3 0 29 -12 58 -26 28 -14 79 -35 112 -46 33 -12 80 -32 104
-45 24 -12 53 -23 63 -23 11 0 52 -13 91 -28 100 -40 189 -67 297 -92 19 -5
71 -17 115 -28 44 -11 116 -27 160 -37 44 -9 95 -21 113 -26 37 -12 187 -34
330 -49 51 -5 97 -12 102 -15 23 -14 374 -30 655 -30 294 0 527 12 653 34 119
21 262 41 297 41 20 0 45 5 55 10 11 6 41 15 67 20 27 5 89 19 138 31 50 12
113 25 140 29 54 8 165 38 260 72 33 11 94 32 135 46 41 13 83 29 94 34 10 5
44 18 75 28 60 19 93 32 156 60 22 10 98 44 170 75 71 32 145 68 165 80 20 13
67 39 106 59 98 52 168 93 249 145 39 25 85 53 102 63 32 18 193 134 203 147
3 3 28 21 55 40 220 150 620 550 873 871 88 112 273 383 293 430 6 14 21 39
35 57 13 17 24 34 24 37 0 3 18 35 40 71 22 36 40 70 40 76 0 5 19 44 43 87
56 100 127 246 127 261 0 12 45 125 92 231 34 75 46 108 57 155 8 37 22 79 42
130 4 11 17 58 29 104 12 46 25 93 30 105 19 51 39 127 55 206 9 47 20 99 26
116 5 17 9 42 9 55 0 14 6 49 14 79 8 30 20 102 26 160 7 58 16 137 20 175 4
39 14 95 21 125 19 76 19 966 0 1055 -7 33 -17 89 -21 125 -25 182 -40 283
-55 360 -9 47 -20 108 -25 135 -4 28 -11 57 -14 65 -3 8 -10 42 -15 75 -6 33
-17 85 -26 115 -9 30 -29 105 -45 165 -16 61 -37 133 -48 160 -10 28 -22 70
-26 94 -6 37 -33 100 -106 241 -9 19 -29 64 -44 100 -38 97 -153 313 -209 395
-12 16 -58 93 -104 170 -45 77 -102 165 -125 196 -24 31 -52 69 -63 85 -11 15
-36 47 -55 69 -19 23 -60 73 -90 110 -123 153 -187 225 -289 330 -59 61 -116
122 -127 136 -11 15 -63 64 -115 110 -52 45 -133 117 -180 158 -131 116 -137
122 -239 197 -194 143 -500 334 -665 416 -38 20 -83 42 -100 50 -127 65 -197
98 -206 98 -14 0 -80 30 -99 45 -8 7 -26 15 -40 18 -14 3 -76 26 -138 52 -132
55 -205 66 -250 40 -67 -40 -53 -168 21 -191 12 -3 45 -17 72 -29 28 -12 68
-28 90 -35 22 -7 54 -18 70 -25 17 -7 61 -25 98 -40 38 -14 121 -53 185 -85
64 -32 137 -68 162 -79 25 -10 62 -31 83 -45 21 -14 40 -26 43 -26 3 0 39 -20
80 -45 40 -25 77 -45 80 -45 4 0 22 -11 40 -25 18 -14 36 -25 41 -25 4 0 19
-10 33 -21 14 -11 63 -45 110 -76 97 -64 278 -204 359 -279 31 -28 69 -60 85
-72 38 -29 206 -192 331 -323 96 -99 192 -212 244 -285 13 -19 28 -34 32 -34
5 0 9 -4 9 -10 0 -5 -7 -10 -15 -10 -8 0 -15 5 -15 10 0 6 -7 10 -15 10 -8 0
13 -28 47 -62 33 -35 86 -95 117 -134 31 -38 79 -99 106 -133 64 -81 164 -220
176 -246 5 -11 13 -27 17 -35 12 -20 26 -48 85 -160 82 -156 157 -308 157
-318 0 -5 18 -45 40 -90 22 -44 40 -85 40 -90 0 -5 10 -31 22 -58 21 -47 50
-139 68 -214 4 -19 20 -74 34 -123 14 -48 26 -96 26 -107 0 -10 5 -22 10 -25
6 -3 10 -17 10 -31 0 -14 4 -33 9 -43 14 -25 51 -212 51 -254 0 -20 5 -48 11
-64 26 -65 69 -586 69 -833 0 -136 -15 -293 -30 -319 -11 -20 -9 -40 -21 214
-11 254 -24 420 -38 482 -24 106 -41 204 -56 313 -9 63 -21 129 -26 145 -11
31 -18 57 -43 165 -8 36 -29 106 -46 155 -18 50 -36 110 -42 135 -6 25 -14 49
-19 55 -5 5 -9 18 -9 30 0 12 -4 25 -9 31 -12 12 -51 123 -51 145 0 9 -11 36
-24 61 -13 24 -27 55 -31 69 -23 78 -261 530 -344 654 -107 158 -174 252 -237
330 -87 109 -341 371 -350 362 -5 -5 117 -152 147 -177 3 -3 23 -27 44 -55 20
-27 41 -52 45 -55 4 -3 36 -41 71 -85 99 -123 294 -426 364 -565 55 -110 88
-174 96 -190 15 -28 69 -141 69 -146 0 -2 13 -32 29 -67 16 -34 37 -82 46
-107 10 -25 26 -63 36 -85 9 -22 23 -60 30 -85 6 -25 22 -67 34 -95 12 -27 30
-77 40 -110 9 -33 26 -87 37 -120 20 -60 37 -130 58 -240 7 -33 16 -76 20 -95
26 -106 42 -183 50 -250 5 -41 16 -111 25 -155 20 -107 54 -577 55 -745 0
-160 -25 -500 -41 -550 -6 -19 -15 -55 -20 -80 -30 -163 -40 -211 -54 -260 -9
-30 -19 -64 -21 -75 -3 -11 -11 -42 -19 -70 -8 -27 -22 -77 -31 -110 -10 -33
-20 -64 -24 -70 -4 -5 -24 -52 -44 -103 -20 -51 -40 -101 -45 -110 -5 -9 -17
-37 -26 -62 -10 -25 -51 -113 -91 -197 -41 -84 -74 -156 -74 -161 0 -5 -11
-19 -25 -32 -14 -13 -25 -30 -25 -37 0 -8 -24 -51 -54 -96 -29 -45 -72 -113
-95 -152 -54 -91 -186 -282 -232 -337 -81 -96 -105 -124 -126 -148 -11 -14
-48 -59 -81 -100 -91 -112 -392 -414 -510 -511 -57 -46 -116 -95 -130 -107
-79 -69 -306 -242 -340 -258 -7 -4 -16 -3 -20 0 -3 4 25 35 63 69 159 143 387
383 490 516 10 14 22 28 26 31 13 10 189 232 189 239 0 3 10 17 23 31 34 38
189 275 232 355 21 39 47 84 60 100 12 17 37 57 55 90 18 33 39 67 46 76 8 8
14 23 14 32 0 9 5 17 10 17 6 0 10 9 10 19 0 11 4 22 9 25 11 7 51 88 51 104
0 20 -18 13 -32 -12 -7 -14 -30 -58 -52 -98 -21 -40 -63 -110 -92 -155 -30
-45 -54 -86 -54 -91 0 -5 -12 -27 -27 -49 -16 -21 -32 -46 -38 -55 -113 -183
-403 -575 -553 -748 -141 -163 -299 -321 -447 -449 -55 -47 -120 -105 -145
-129 -68 -66 -154 -120 -390 -244 -30 -16 -62 -33 -70 -38 -15 -10 -198 -95
-235 -110 -11 -4 -50 -22 -86 -39 -37 -17 -75 -31 -86 -31 -10 0 -24 -5 -30
-11 -6 -6 -26 -14 -44 -19 -81 -20 -249 -70 -301 -89 -32 -12 -67 -21 -80 -21
-12 0 -47 -6 -77 -14 -176 -44 -283 -61 -481 -76 -342 -27 -437 -30 -580 -20
-80 6 -219 15 -310 20 -173 9 -274 22 -352 46 -26 8 -59 14 -75 14 -15 0 -50
7 -77 15 -27 8 -66 15 -86 15 -20 0 -45 7 -56 15 -10 8 -31 15 -46 15 -15 0
-30 5 -33 10 -8 13 117 13 170 -1 38 -9 102 -17 350 -38 139 -13 552 -13 670
0 50 5 137 13 195 18 166 14 374 48 440 72 14 5 77 19 140 33 63 13 142 33
175 44 33 12 87 29 120 37 33 9 74 23 90 30 17 8 57 23 90 34 76 26 118 42
178 69 27 12 52 22 55 22 4 0 47 20 97 44 49 25 122 59 160 77 39 18 105 55
148 81 44 27 86 52 96 56 22 9 361 236 386 259 11 10 47 40 80 68 129 108 239
208 266 242 31 38 33 43 22 43 -8 0 -24 -13 -120 -96 -29 -25 -89 -75 -134
-112 -45 -37 -94 -77 -108 -89 -14 -12 -31 -22 -37 -23 -6 0 -17 -7 -24 -15
-15 -19 -155 -117 -201 -142 -19 -10 -48 -28 -65 -40 -17 -12 -42 -27 -55 -33
-13 -6 -37 -19 -54 -30 -16 -11 -52 -32 -80 -47 -27 -15 -59 -33 -70 -40 -11
-7 -29 -16 -41 -22 -22 -10 -162 -75 -249 -117 -76 -35 -126 -54 -145 -54 -10
0 -23 -6 -29 -14 -6 -8 -22 -16 -34 -19 -12 -3 -47 -15 -77 -27 -30 -12 -66
-24 -80 -27 -25 -4 -35 -8 -95 -33 -16 -7 -52 -18 -80 -25 -27 -7 -75 -20
-105 -30 -57 -17 -86 -24 -210 -48 -41 -9 -91 -20 -110 -26 -79 -22 -182 -37
-500 -72 -156 -17 -480 -23 -590 -10 -52 6 -158 18 -235 27 -260 29 -290 33
-354 44 -35 6 -72 15 -82 20 -10 6 -32 10 -49 10 -37 0 -163 27 -200 42 -14 6
-41 14 -60 18 -57 13 -221 61 -239 70 -9 4 -56 23 -106 40 -49 18 -95 37 -101
41 -6 5 -31 15 -55 23 -24 7 -75 28 -114 46 -38 18 -99 46 -135 63 -36 16 -92
43 -125 60 -196 99 -219 112 -485 275 -83 50 -153 92 -156 92 -3 0 -29 18 -58
40 -29 22 -57 40 -63 40 -6 0 -16 7 -23 15 -15 18 -30 19 -30 3 0 -13 188
-153 310 -231 158 -102 229 -146 280 -174 123 -67 246 -136 255 -143 6 -4 33
-15 60 -26 28 -10 66 -27 85 -39 54 -32 234 -115 250 -115 9 0 34 -11 225 -99
77 -36 153 -62 222 -76 18 -4 35 -11 38 -16 4 -5 16 -9 29 -9 12 0 26 -4 31
-9 6 -6 28 -14 50 -20 22 -5 54 -14 70 -20 39 -13 89 -26 200 -51 50 -11 104
-25 121 -30 17 -6 40 -10 53 -10 12 0 34 -6 49 -14 15 -7 65 -16 112 -20 47
-3 101 -10 120 -16 19 -5 60 -10 90 -10 30 -1 82 -7 115 -15 36 -9 111 -15
188 -15 83 0 126 -4 122 -10 -8 -13 -354 -13 -465 0 -47 6 -128 15 -180 20
-107 10 -193 25 -230 39 -14 5 -54 12 -90 15 -80 8 -170 24 -232 42 -26 8 -56
14 -68 14 -12 0 -29 4 -39 10 -10 5 -49 14 -87 20 -64 10 -99 19 -149 41 -11
4 -56 18 -99 30 -44 11 -87 24 -95 29 -41 19 -91 39 -141 55 -30 10 -80 29
-110 43 -170 75 -368 172 -435 212 -27 16 -63 36 -80 44 -16 8 -52 29 -80 45
-27 17 -59 35 -70 40 -11 5 -29 18 -40 28 -11 10 -47 34 -80 53 -139 80 -448
307 -556 410 -15 14 -39 36 -55 49 -56 47 -239 226 -277 271 -21 25 -58 68
-82 95 -40 46 -227 290 -250 327 -5 8 -40 60 -76 114 -64 97 -123 193 -151
245 -66 127 -113 221 -128 259 -10 25 -37 84 -59 131 -23 47 -41 91 -41 96 0
6 -10 30 -23 54 -13 24 -31 67 -41 94 -10 28 -24 64 -31 80 -24 59 -43 111
-60 170 -10 33 -23 74 -30 90 -7 17 -21 64 -30 105 -10 41 -22 84 -26 95 -37
89 -63 235 -41 235 12 0 52 -78 52 -102 0 -9 7 -21 15 -28 8 -7 15 -17 15 -23
0 -10 70 -162 91 -197 5 -8 11 -21 14 -27 13 -32 17 -41 42 -83 14 -25 33 -59
42 -76 9 -16 26 -43 38 -60 11 -16 31 -51 43 -79 12 -27 33 -64 46 -82 13 -17
24 -35 24 -38 0 -4 14 -24 30 -45 17 -21 30 -43 30 -49 0 -6 7 -11 15 -11 8 0
15 -9 15 -20 0 -11 5 -20 10 -20 15 0 11 21 -11 55 -10 17 -22 37 -26 45 -4 8
-29 48 -57 90 -28 41 -61 96 -73 122 -13 26 -28 50 -33 53 -6 3 -10 14 -10 24
0 10 -7 24 -15 31 -8 7 -15 20 -15 30 0 10 -6 23 -14 29 -13 11 -76 131 -76
145 0 3 -11 24 -25 46 -14 22 -25 48 -25 59 0 10 -7 24 -15 31 -8 7 -15 18
-15 24 0 6 -14 38 -30 71 -16 33 -30 66 -30 73 0 7 -4 20 -10 30 -16 30 -38
85 -58 152 -12 36 -30 90 -41 120 -30 82 -64 316 -80 540 -17 233 -10 679 15
983 6 68 0 106 -14 93 -4 -4 -10 -40 -13 -79 -4 -40 -12 -92 -17 -117 -6 -25
-16 -183 -22 -352 -10 -247 -10 -337 1 -456 7 -82 9 -157 4 -168 -7 -16 -9
-13 -15 16 -3 19 -11 44 -17 55 -6 11 -13 51 -17 90 -4 38 -11 74 -15 80 -5 5
-11 51 -14 100 -3 50 -11 131 -18 180 -6 50 -12 220 -12 385 -1 236 2 315 16
393 9 53 24 141 33 195 16 97 39 193 54 222 4 9 11 31 14 50 9 43 113 373 131
415 7 17 21 50 30 75 10 25 28 68 40 95 13 28 27 61 30 75 8 26 61 146 97 215
11 22 31 63 45 90 14 28 31 57 39 65 14 16 67 108 123 210 53 98 307 456 368
518 7 7 13 17 13 22 0 24 307 347 475 500 145 132 427 353 527 415 9 6 49 33
90 61 40 27 98 63 128 79 51 27 185 103 220 125 8 5 35 19 60 31 82 39 224
110 235 118 5 4 48 22 95 40 47 18 103 41 125 51 22 9 51 21 65 25 14 4 54 18
90 32 64 25 130 46 200 63 19 5 60 16 90 24 52 16 138 37 225 56 22 5 74 18
115 29 41 12 109 25 150 31 41 5 93 14 115 19 67 17 173 30 335 41 211 14 199
15 211 -20 14 -37 27 -38 35 -2 3 15 10 37 16 48 11 23 8 103 -13 359 -16 207
-17 230 -2 230 7 0 22 -14 35 -31 13 -17 46 -50 73 -74 28 -23 100 -90 160
-149 61 -59 166 -156 233 -217 295 -261 361 -314 392 -314 14 0 -16 29 -99 98
-24 21 -49 42 -56 49 -7 6 -34 31 -61 54 -27 23 -79 70 -116 105 -37 35 -70
64 -73 64 -16 0 -177 159 -173 171 3 8 29 -11 88 -65 26 -24 114 -89 177 -132
21 -14 52 -38 68 -52 17 -15 41 -35 55 -45 39 -28 131 -98 194 -147 76 -59 98
-76 262 -199 176 -133 244 -190 244 -207 0 -8 -15 -24 -34 -36 -19 -13 -87
-63 -151 -113 -65 -49 -129 -98 -143 -107 -14 -9 -29 -24 -34 -32 -5 -9 -30
-28 -56 -43 -26 -15 -80 -52 -121 -82 -40 -31 -85 -64 -99 -73 -14 -9 -28 -20
-31 -25 -6 -9 -119 -97 -161 -126 -25 -17 -45 -34 -190 -152 -41 -33 -93 -71
-116 -85 -23 -14 -75 -52 -115 -86 -98 -80 -145 -108 -155 -93 -9 16 79 99
221 208 57 44 103 82 131 109 7 6 16 12 21 12 5 0 28 20 53 45 25 24 49 44 54
45 4 0 18 9 30 19 11 11 38 34 59 51 20 18 47 46 58 62 l22 30 -24 -14 c-13
-7 -26 -15 -29 -18 -3 -3 -27 -23 -55 -45 -27 -22 -59 -47 -70 -57 -11 -9 -49
-39 -85 -67 -36 -28 -83 -66 -105 -85 -34 -29 -103 -86 -140 -114 -126 -97
-135 -103 -141 -89 -4 13 7 246 23 454 4 62 3 72 -13 81 -38 19 -90 21 -159 7
-38 -8 -85 -15 -104 -15 -19 0 -68 -6 -110 -14 -42 -8 -130 -22 -196 -31 -66
-9 -127 -19 -135 -23 -8 -3 -40 -11 -70 -18 -165 -36 -347 -94 -513 -164 -39
-16 -77 -30 -84 -30 -18 0 -361 -177 -400 -206 -17 -13 -36 -24 -41 -24 -6 0
-41 -20 -79 -45 -37 -25 -71 -45 -75 -45 -23 0 -289 -203 -397 -302 -40 -37
-79 -68 -87 -68 -8 0 -14 -6 -15 -12 -1 -16 -69 -74 -69 -59 0 6 5 11 10 11 6
0 10 6 10 13 0 7 10 24 22 37 13 13 40 45 62 70 57 66 223 237 288 296 54 49
335 244 351 244 5 0 23 10 40 23 18 12 41 27 52 34 34 20 324 163 331 163 7 0
115 49 167 75 16 8 39 15 52 15 13 0 26 4 29 9 6 10 63 31 166 61 41 12 83 26
92 31 10 5 26 9 35 9 10 0 31 7 47 15 15 8 48 15 72 15 25 0 61 7 81 15 19 8
47 15 62 15 36 0 71 11 71 21 0 12 -105 12 -144 0 -17 -5 -67 -17 -111 -26
-82 -18 -161 -40 -205 -58 -14 -5 -41 -13 -60 -17 -19 -5 -60 -18 -90 -30 -30
-12 -80 -31 -110 -41 -30 -11 -71 -27 -90 -35 -19 -9 -44 -19 -55 -24 -34 -14
-327 -160 -384 -192 -52 -28 -220 -137 -231 -148 -15 -16 -89 -70 -96 -70 -13
0 -384 -377 -419 -425 -16 -21 -36 -47 -45 -55 -28 -30 -64 -74 -114 -140 -27
-36 -79 -99 -115 -140 -37 -41 -107 -129 -156 -194 -174 -230 -206 -271 -216
-274 -5 -2 -9 -10 -9 -18 0 -7 -20 -43 -45 -80 -25 -36 -45 -68 -45 -71 0 -3
-11 -21 -25 -39 -14 -18 -25 -36 -25 -39 0 -7 -51 -113 -75 -155 -40 -73 -89
-180 -139 -310 -31 -80 -62 -156 -68 -170 -29 -66 -37 -90 -52 -160 -9 -41
-21 -91 -25 -110 -5 -19 -19 -80 -31 -135 -12 -55 -26 -113 -30 -130 -28 -99
-40 -157 -44 -210 -3 -33 -10 -94 -15 -135 -6 -41 -10 -210 -11 -376 0 -165
-3 -304 -7 -307 -4 -4 -14 7 -22 25 -13 27 -16 91 -19 348 -4 356 10 552 53
725 9 39 23 104 31 145 16 91 36 177 58 250 9 30 21 76 27 102 6 26 15 50 20
54 5 3 9 13 9 23 0 10 7 32 15 47 8 16 15 36 15 46 0 33 115 299 187 433 26
48 31 57 52 105 12 25 33 65 47 90 30 52 175 273 184 280 3 3 28 38 55 78 26
40 65 92 85 115 20 23 47 58 60 77 13 19 27 37 30 40 3 3 32 36 65 75 154 179
216 242 444 450 90 82 159 151 152 153 -6 2 -28 -9 -47 -25 -20 -15 -61 -47
-92 -71 -211 -164 -578 -549 -712 -747 -18 -27 -38 -53 -43 -56 -5 -4 -14 -16
-20 -27 -7 -11 -39 -61 -72 -110 -33 -50 -77 -117 -97 -149 -41 -66 -187 -353
-231 -454 -15 -35 -32 -71 -38 -79 -5 -8 -11 -19 -12 -25 -2 -5 -21 -59 -41
-120 -21 -60 -44 -132 -52 -160 -8 -27 -22 -72 -30 -100 -26 -85 -39 -142 -70
-295 -8 -41 -19 -88 -24 -105 -5 -16 -14 -75 -20 -130 -6 -55 -15 -139 -20
-186 -12 -105 -12 -623 0 -699 5 -30 14 -104 19 -165 6 -60 15 -126 20 -145 5
-19 17 -71 26 -115 22 -106 45 -194 57 -225 6 -14 21 -65 34 -115 12 -49 39
-137 58 -194 20 -57 36 -113 36 -123 0 -11 6 -32 14 -46 22 -40 63 -134 71
-162 4 -14 13 -32 20 -40 6 -8 17 -31 25 -50 12 -35 94 -211 111 -240 5 -8 32
-60 60 -115 45 -88 118 -203 210 -330 16 -22 53 -76 83 -120 29 -44 84 -118
120 -165 84 -106 403 -437 492 -510 36 -30 80 -67 98 -82 91 -76 304 -233 385
-283 9 -5 38 -26 66 -45 27 -19 71 -46 97 -60 166 -88 194 -103 198 -110 3 -4
34 -20 70 -35 36 -15 83 -36 105 -46 51 -23 177 -76 235 -99 73 -28 104 -40
125 -49 19 -9 174 -54 240 -70 17 -5 40 -13 52 -19 12 -7 34 -12 48 -12 32 0
152 -25 215 -46 25 -8 62 -14 83 -14 21 0 57 -4 80 -10 23 -5 65 -12 92 -16
39 -5 46 -8 30 -15 -29 -11 -173 -10 -220 2 -22 5 -85 14 -140 19 -136 12
-256 33 -340 58 -38 11 -119 30 -180 42 -60 11 -114 25 -120 31 -5 5 -17 9
-26 9 -9 0 -30 7 -45 15 -16 8 -37 15 -46 15 -16 0 -77 20 -123 41 -11 5 -51
20 -90 35 -38 14 -86 34 -105 44 -19 10 -55 26 -80 36 -143 60 -365 191 -612
362 -294 204 -665 574 -878 877 -27 39 -58 82 -69 96 -12 15 -24 35 -27 45 -4
11 -15 28 -25 39 -23 26 -88 140 -183 320 -37 71 -106 224 -106 236 0 6 -12
36 -26 67 -28 60 -82 210 -91 252 -3 14 -9 30 -13 35 -5 6 -11 28 -15 50 -4
22 -13 47 -20 55 -8 8 -15 31 -17 50 -2 19 -7 35 -13 34 -17 -1 -17 -32 -1
-66 9 -17 16 -42 16 -55 0 -13 7 -40 15 -60 8 -19 15 -43 15 -52 0 -9 7 -29
15 -45 8 -15 15 -37 15 -47 0 -10 4 -20 9 -23 5 -3 12 -22 16 -42 3 -20 18
-62 32 -93 46 -104 53 -122 53 -137 0 -9 6 -28 14 -42 8 -15 41 -81 74 -147
32 -66 78 -150 101 -188 22 -37 41 -70 41 -73 0 -2 8 -17 19 -32 44 -63 121
-183 121 -188 0 -9 123 -166 280 -357 85 -104 442 -437 468 -437 5 0 16 -7 23
-16 7 -9 37 -31 66 -50 29 -18 61 -43 70 -54 10 -11 22 -20 27 -20 5 0 27 -14
50 -31 59 -44 209 -139 220 -139 5 0 17 -6 25 -14 9 -7 48 -31 86 -51 39 -21
81 -46 95 -55 14 -10 36 -21 50 -25 14 -4 45 -18 70 -31 60 -31 116 -54 129
-54 6 0 27 -7 48 -16 48 -21 59 -25 168 -64 50 -17 99 -36 110 -42 18 -10 62
-21 170 -43 17 -3 53 -12 80 -20 84 -25 180 -45 209 -45 15 0 64 -7 109 -14
381 -68 822 -72 1217 -11 58 9 159 22 225 30 172 20 203 24 265 40 86 21 196
45 211 45 8 0 43 11 79 24 36 14 112 39 170 56 58 17 122 38 143 46 84 32 125
49 185 76 34 15 65 28 68 28 10 0 195 92 235 116 20 12 71 41 115 65 71 37
127 72 259 158 66 43 183 130 190 141 4 6 25 23 48 37 121 76 502 434 642 604
11 13 55 67 97 119 42 52 90 111 106 130 15 19 39 53 52 75 30 53 55 93 122
196 31 48 71 115 88 150 18 35 42 78 54 94 23 31 116 235 116 253 0 6 13 39
28 74 16 35 35 79 42 98 21 57 41 103 56 132 8 14 14 35 14 45 0 11 6 39 14
64 7 24 25 80 39 124 14 44 33 107 42 140 9 33 23 78 30 100 13 37 24 99 61
320 8 50 20 110 25 135 15 64 29 253 35 490 6 214 -16 602 -36 640 -5 10 -10
31 -10 47 0 15 -6 57 -14 93 -8 36 -22 108 -31 160 -17 98 -77 310 -113 400
-6 14 -20 56 -32 95 -12 38 -25 74 -29 80 -4 5 -28 60 -54 120 -25 61 -52 124
-61 140 -9 17 -16 33 -16 37 0 3 -16 34 -35 68 -19 34 -38 74 -42 89 -3 14
-16 40 -27 56 -31 44 -45 67 -56 93 -5 12 -15 28 -21 35 -6 6 -23 31 -37 54
-15 23 -45 68 -68 100 -22 32 -64 91 -92 132 -28 41 -75 99 -105 130 -29 31
-60 65 -68 77 -29 43 -118 134 -123 126 -2 -4 10 -24 27 -43 70 -78 107 -124
107 -132 0 -5 18 -30 41 -55 45 -51 163 -227 181 -270 7 -15 24 -43 39 -62 29
-38 189 -297 189 -307 0 -5 62 -149 110 -258 10 -22 30 -67 45 -100 14 -33 30
-67 34 -75 4 -8 18 -49 31 -90 12 -41 26 -84 31 -95 12 -32 37 -115 54 -180 9
-33 21 -73 27 -90 11 -32 21 -82 37 -185 6 -36 17 -101 25 -145 58 -315 75
-653 45 -917 -16 -140 -29 -187 -30 -107 0 24 -2 143 -3 264 -3 205 -13 326
-37 435 -5 25 -13 74 -18 110 -26 188 -42 260 -87 400 -13 41 -24 86 -24 100
0 14 -5 31 -12 38 -12 12 -19 29 -58 142 -33 93 -35 101 -54 143 -9 21 -16 42
-16 47 0 10 -80 187 -106 235 -9 17 -38 70 -63 118 -50 97 -49 95 -104 179
-20 31 -37 60 -37 64 0 11 -145 223 -202 296 -152 192 -378 426 -583 602 -38
33 -74 65 -80 71 -5 6 -21 19 -35 28 -14 9 -59 42 -100 72 -85 62 -237 165
-244 165 -2 0 -50 27 -106 61 -112 66 -441 229 -464 229 -13 0 -69 20 -111 40
-32 16 -175 50 -208 50 -20 0 -38 -10 -59 -32 -30 -33 -69 -40 -92 -17 -14 12
-66 11 -66 -1 0 -6 8 -13 18 -16 9 -3 31 -12 47 -19 17 -8 38 -16 48 -19 9 -3
20 -19 24 -36 7 -35 27 -48 135 -84 119 -41 161 -57 198 -76 19 -10 69 -34
110 -54 41 -19 82 -40 90 -46 8 -5 31 -17 50 -25 19 -9 65 -33 101 -53 36 -20
81 -45 99 -56 19 -10 70 -44 114 -74 45 -31 124 -86 177 -122 53 -36 114 -79
135 -97 22 -18 73 -60 114 -95 98 -81 299 -284 375 -378 33 -41 68 -84 78 -95
21 -23 197 -263 197 -268 0 -2 20 -35 45 -73 25 -37 45 -72 45 -77 0 -4 11
-23 24 -40 23 -30 116 -208 116 -221 0 -4 11 -23 23 -44 27 -42 117 -238 117
-254 0 -5 6 -24 14 -41 14 -35 35 -87 60 -155 9 -23 16 -53 16 -65 0 -13 4
-27 8 -32 16 -18 41 -99 57 -185 9 -47 21 -103 27 -125 13 -52 24 -112 37
-205 6 -41 19 -127 28 -190 21 -136 23 -601 4 -684 -7 -27 -16 -94 -21 -150
-5 -56 -15 -123 -20 -151 -34 -155 -40 -186 -50 -247 -12 -75 -47 -198 -61
-212 -5 -6 -9 -18 -9 -29 0 -19 -51 -152 -76 -199 -8 -14 -14 -34 -14 -43 0
-9 -6 -29 -14 -43 -8 -15 -24 -47 -35 -72 -52 -118 -136 -284 -174 -345 -7
-11 -32 -54 -55 -95 -46 -81 -166 -257 -207 -304 -14 -15 -25 -31 -25 -35 0
-4 -24 -34 -53 -67 -29 -32 -82 -95 -119 -139 -73 -88 -274 -288 -408 -406
-79 -70 -317 -252 -385 -295 -16 -10 -32 -21 -35 -24 -6 -7 -98 -63 -120 -73
-8 -4 -31 -17 -50 -29 -143 -87 -350 -191 -472 -238 -29 -11 -62 -25 -73 -30
-52 -26 -305 -109 -395 -131 -19 -4 -66 -16 -105 -27 -38 -10 -122 -27 -185
-36 -63 -10 -151 -24 -195 -32 -109 -20 -552 -29 -725 -15 -74 6 -178 17 -230
25 -52 8 -131 20 -175 26 -82 12 -198 36 -225 47 -8 4 -53 16 -100 29 -47 12
-110 32 -140 44 -30 12 -69 25 -87 30 -17 4 -51 17 -76 29 -24 11 -47 21 -51
21 -4 0 -28 9 -54 21 -26 11 -58 25 -72 31 -67 28 -95 41 -220 103 -144 72
-331 181 -379 221 -16 13 -32 24 -37 24 -4 0 -30 17 -58 38 -28 21 -61 45 -72
53 -82 54 -334 277 -464 409 -113 115 -189 201 -298 340 -50 63 -101 129 -115
145 -30 38 -178 268 -212 332 -15 26 -37 66 -50 88 -13 22 -24 46 -25 53 0 7
-11 28 -25 46 -14 18 -25 36 -25 40 0 3 -16 39 -36 79 -36 73 -88 214 -126
342 -11 39 -24 79 -28 90 -39 102 -70 219 -70 265 0 17 -5 41 -12 53 -14 26
-15 28 -67 382 -25 170 -31 253 -31 428 0 103 5 219 11 259 5 40 16 116 24
168 8 52 17 124 20 160 4 36 10 79 15 95 11 40 35 134 56 220 14 63 29 103 55
157 5 10 9 25 9 33 0 15 19 70 60 175 12 30 26 69 31 85 9 32 26 71 40 95 5 8
12 22 15 30 19 51 60 133 71 142 7 6 13 18 13 27 0 21 70 142 235 405 44 70
103 147 260 341 119 148 440 445 582 541 32 21 72 50 89 65 67 56 323 214 424
261 63 29 62 29 190 94 63 32 149 70 190 85 41 15 101 36 132 48 32 11 66 21
76 21 10 0 23 5 29 11 6 6 26 9 44 7 33 -3 33 -4 -34 -35 -37 -18 -72 -33 -78
-33 -33 0 -310 -136 -467 -229 -29 -17 -55 -31 -57 -31 -2 0 -34 -21 -72 -47
-37 -25 -97 -64 -132 -86 -76 -46 -281 -198 -302 -223 -7 -9 -56 -48 -106 -86
-185 -139 -570 -569 -739 -828 -20 -30 -54 -80 -74 -111 -21 -31 -45 -71 -54
-90 -9 -19 -34 -65 -56 -104 -36 -61 -81 -150 -111 -220 -5 -11 -13 -27 -18
-35 -5 -8 -17 -35 -26 -60 -10 -25 -27 -65 -39 -90 -12 -25 -37 -92 -55 -150
-18 -58 -39 -119 -47 -137 -8 -17 -14 -39 -14 -50 0 -17 -27 -122 -48 -188
-18 -56 -33 -133 -42 -207 -5 -40 -16 -122 -26 -183 -20 -123 -26 -407 -9
-415 6 -3 12 34 16 95 4 55 11 118 18 140 6 22 11 70 11 107 0 36 7 102 15
145 8 43 15 91 15 106 0 16 7 52 16 80 20 67 30 106 50 192 9 39 22 84 28 100
24 57 38 100 45 135 14 69 108 305 128 321 7 6 13 18 13 25 0 23 123 258 190
364 19 30 38 62 42 71 8 20 184 283 201 301 7 7 23 29 37 49 66 95 290 338
436 475 131 122 356 312 419 353 22 14 42 28 45 31 8 8 100 70 105 70 2 0 33
20 69 45 37 25 68 45 71 45 3 0 35 19 72 42 87 53 366 195 463 235 41 17 102
42 135 56 33 13 76 28 95 32 19 4 40 11 45 15 21 15 163 60 223 69 34 5 68 13
75 18 6 4 39 11 72 16 106 15 100 16 103 -28 2 -22 -1 -71 -7 -110 -6 -38 -16
-146 -21 -240 -6 -93 -14 -228 -20 -299 -11 -153 -8 -161 58 -153 34 4 54 14
85 44 23 22 76 66 117 99 41 32 106 85 145 118 38 32 90 72 115 89 25 17 47
33 50 36 11 13 109 92 193 155 48 36 93 71 100 76 30 25 138 100 143 100 4 0
12 6 18 14 6 8 56 46 111 85 55 39 115 83 134 98 45 37 189 141 276 202 71 48
170 118 235 166 19 14 67 49 105 76 39 28 79 65 90 82 11 18 32 43 47 57 16
13 28 32 28 41 0 9 -33 40 -72 70 -205 150 -556 415 -593 447 -11 9 -83 66
-160 127 -77 60 -144 113 -150 117 -5 5 -27 21 -47 36 -253 188 -447 338 -459
355 -3 5 -18 16 -32 25 -29 20 -305 231 -387 297 -57 45 -138 105 -144 105 -2
0 -7 -7 -10 -16z m100 -100 c14 -9 29 -25 35 -36 10 -18 8 -19 -25 -12 -33 6
-36 4 -36 -16 0 -22 -1 -23 -20 -5 -28 25 -28 85 0 85 12 0 32 -7 46 -16z
m-626 -2244 c0 -5 -7 -10 -16 -10 -8 0 -12 5 -9 10 3 6 10 10 16 10 5 0 9 -4
9 -10z m634 -665 c-10 -26 -64 -47 -64 -25 0 5 11 12 25 16 14 3 25 10 25 15
0 5 4 9 10 9 5 0 7 -7 4 -15z m-4452 -2930 c6 -16 14 -64 19 -105 21 -208 30
-277 37 -295 16 -36 40 -118 62 -210 12 -49 25 -94 30 -100 9 -13 34 -129 55
-260 9 -55 21 -109 25 -120 5 -11 12 -36 16 -55 3 -19 10 -39 14 -45 4 -5 10
-40 13 -76 3 -36 10 -77 15 -90 5 -13 16 -49 25 -79 8 -30 23 -79 31 -109 9
-29 16 -65 16 -80 0 -15 4 -31 9 -37 5 -5 26 -58 46 -119 20 -60 47 -134 61
-163 13 -29 24 -56 24 -61 0 -5 13 -35 29 -67 16 -33 37 -84 47 -114 15 -47
69 -165 167 -367 23 -47 14 -72 -12 -34 -16 24 -59 100 -116 207 -18 34 -40
72 -48 85 -23 37 -77 136 -120 219 -21 41 -42 79 -46 85 -5 5 -16 33 -26 60
-10 28 -30 77 -45 110 -15 33 -34 80 -43 105 -8 25 -22 59 -31 75 -9 17 -28
68 -42 115 -14 47 -36 114 -49 150 -12 36 -30 92 -40 125 -10 33 -24 78 -31
100 -16 46 -33 140 -44 235 -4 36 -12 88 -18 115 -22 102 -33 192 -63 569 -7
88 -8 187 -3 275 l8 136 8 -75 c5 -41 14 -88 20 -105z m9638 -2082 c0 -5 -5
-15 -10 -23 -8 -12 -10 -11 -10 8 0 12 5 22 10 22 6 0 10 -3 10 -7z m-36 -70
c-4 -16 -11 -29 -16 -31 -4 -2 -8 -14 -8 -27 0 -13 -4 -27 -10 -30 -15 -10
-12 29 5 51 8 10 15 29 15 42 0 12 5 22 10 22 6 0 8 -11 4 -27z m-54 -128 c0
-22 -95 -218 -122 -252 -6 -7 -32 -56 -60 -110 -27 -54 -66 -120 -87 -148 -20
-27 -40 -58 -44 -68 -8 -21 -121 -187 -184 -269 -24 -31 -43 -60 -43 -63 0 -4
-20 -30 -45 -59 -24 -28 -77 -89 -117 -136 -140 -166 -358 -385 -553 -556
-123 -108 -389 -302 -448 -326 -10 -4 -32 -18 -50 -32 -45 -33 -274 -169 -322
-190 -22 -10 -76 -35 -120 -57 -44 -21 -114 -54 -155 -73 -41 -19 -110 -50
-153 -70 -43 -20 -83 -36 -89 -36 -5 0 -22 -6 -36 -13 -15 -8 -42 -21 -60 -30
-19 -9 -42 -17 -52 -17 -10 0 -21 -4 -24 -9 -4 -5 -29 -12 -56 -16 -28 -4 -50
-11 -50 -16 0 -5 -9 -9 -20 -9 -12 0 -35 -7 -51 -16 -17 -8 -38 -12 -47 -9
-13 6 -8 12 23 26 22 10 52 19 68 19 15 0 27 4 27 9 0 5 10 12 23 16 12 3 31
10 42 14 11 5 40 16 65 26 54 20 131 56 260 119 52 25 101 46 108 46 7 0 36
15 65 33 29 18 77 47 107 64 30 16 104 58 163 91 60 34 110 62 112 62 2 0 38
24 79 53 42 28 108 74 148 102 104 71 313 231 378 289 255 227 404 373 555
542 158 178 374 455 375 482 0 4 10 18 21 32 11 14 54 77 96 140 41 63 84 127
94 142 11 15 19 30 19 32 0 3 17 34 38 68 21 35 49 85 63 111 13 26 28 57 34
67 14 27 25 25 25 -5z m-1910 -1777 c0 -7 -16 -23 -36 -36 -56 -36 -56 -17 0
26 33 26 36 26 36 10z m-3766 -573 c15 -8 41 -15 57 -15 26 0 47 -15 36 -27
-3 -3 -27 0 -54 7 -26 6 -69 17 -95 23 -27 6 -48 15 -48 19 0 14 73 9 104 -7z"/>
<path d="M7305 11210 c3 -5 8 -10 11 -10 2 0 4 5 4 10 0 6 -5 10 -11 10 -5 0
-7 -4 -4 -10z"/>
<path d="M5943 10653 c-25 -9 -13 -23 20 -23 41 0 66 14 42 24 -19 7 -44 7
-62 -1z"/>
<path d="M9120 10590 c0 -5 7 -10 15 -10 8 0 15 5 15 10 0 6 -7 10 -15 10 -8
0 -15 -4 -15 -10z"/>
<path d="M9170 10561 c0 -5 9 -13 20 -16 11 -3 20 -11 20 -16 0 -5 11 -9 24
-9 13 0 26 -7 30 -15 3 -8 12 -15 20 -15 8 0 30 -13 48 -30 18 -16 40 -30 50
-30 10 0 18 -5 18 -10 0 -6 8 -14 18 -17 15 -6 247 -160 276 -184 41 -33 135
-99 142 -99 5 0 22 -14 38 -30 16 -17 35 -30 43 -30 7 0 13 -4 13 -10 0 -5 5
-10 11 -10 6 0 26 -15 44 -34 18 -19 53 -47 77 -63 23 -15 54 -39 68 -53 14
-14 43 -39 65 -55 50 -37 44 -33 154 -137 50 -49 96 -88 103 -88 6 0 17 -8 24
-17 7 -10 14 -13 14 -7 0 17 -183 194 -201 194 -5 0 -41 32 -80 70 -40 39 -76
70 -81 70 -4 0 -21 11 -36 24 -83 74 -98 86 -108 86 -6 0 -31 20 -55 45 -24
25 -47 45 -52 45 -9 0 -16 5 -73 54 -23 20 -46 36 -52 36 -6 0 -12 3 -14 8 -4
10 -84 72 -93 72 -4 0 -24 14 -45 30 -21 17 -42 30 -48 30 -6 0 -12 4 -14 8
-1 4 -34 28 -73 52 -94 61 -103 66 -155 92 -25 13 -46 26 -48 31 -2 4 -9 7
-17 7 -7 0 -18 7 -25 15 -14 16 -50 21 -50 6z"/>
<path d="M9640 9620 c0 -5 5 -10 10 -10 6 0 10 5 10 10 0 6 -4 10 -10 10 -5 0
-10 -4 -10 -10z"/>
<path d="M9700 9546 c0 -9 5 -16 10 -16 6 0 10 4 10 9 0 6 -4 13 -10 16 -5 3
-10 -1 -10 -9z"/>
<path d="M6696 9245 c-11 -19 -22 -52 -25 -72 -10 -58 -37 -56 -47 4 -5 26
-14 48 -19 48 -16 0 -36 -74 -45 -170 -5 -49 -14 -105 -21 -123 -8 -24 -9 -76
-4 -180 11 -205 11 -489 1 -812 -5 -190 -4 -335 4 -470 6 -107 14 -346 17
-530 5 -312 4 -337 -12 -350 -16 -13 -214 -16 -1454 -22 -1355 -6 -1607 -12
-1671 -36 -35 -13 -52 -36 -48 -64 2 -19 11 -24 48 -29 25 -4 65 -13 89 -21
40 -13 42 -15 20 -21 -13 -4 -38 -7 -55 -7 -30 0 -64 -25 -64 -47 0 -28 136
-36 521 -29 528 9 1067 23 1359 35 135 5 471 10 746 10 441 1 503 -1 514 -14
11 -13 12 -220 7 -1073 -3 -633 -1 -1153 4 -1297 6 -132 13 -344 17 -471 8
-251 12 -271 58 -254 21 8 26 6 36 -15 6 -14 14 -25 18 -25 19 0 34 36 34 80
0 48 0 48 18 28 10 -12 18 -25 18 -30 0 -4 6 -8 14 -8 8 0 22 19 31 43 14 37
15 101 12 577 -2 308 -9 594 -16 675 -16 173 -6 1765 10 1776 19 12 735 21
1849 25 1147 3 1260 7 1285 41 7 9 19 14 28 10 15 -6 97 47 97 63 0 14 -30 20
-100 20 -72 0 -101 13 -50 24 56 11 36 44 -40 66 -63 19 -1522 26 -1795 9
-104 -7 -436 -14 -737 -16 l-547 -4 -5 23 c-9 44 -21 795 -17 1138 6 705 5
1051 -5 1274 -10 203 -13 231 -29 243 -26 18 -28 17 -49 -22z"/>
<path d="M5230 9219 c-146 -3 -288 -7 -317 -8 -59 -1 -52 9 -123 -171 -18 -47
-42 -105 -53 -130 -11 -25 -30 -72 -42 -105 -13 -33 -35 -86 -49 -117 -14 -31
-26 -62 -26 -68 0 -6 -20 -62 -45 -123 -45 -110 -54 -131 -82 -192 -15 -34
-61 -146 -104 -255 -17 -41 -35 -80 -40 -87 -6 -6 -9 -29 -7 -50 l3 -38 105 1
c58 1 169 5 246 9 137 7 142 7 148 -12 6 -19 -10 -84 -34 -138 -12 -28 -35
-98 -60 -182 -12 -40 -26 -75 -31 -78 -5 -4 -9 -15 -9 -25 0 -11 -6 -34 -14
-52 -8 -18 -22 -53 -31 -78 -10 -25 -21 -54 -26 -65 -12 -29 -59 -195 -59
-210 0 -8 -6 -20 -14 -28 -22 -21 -24 -52 -5 -52 10 0 26 -11 36 -24 27 -34
55 -21 106 47 23 31 69 90 102 129 33 40 89 109 125 155 36 45 85 105 110 133
25 28 70 82 100 120 30 37 60 73 65 79 6 6 64 79 129 161 145 182 225 282 254
315 88 100 182 234 182 260 0 52 -9 53 -275 48 -147 -3 -248 -2 -251 4 -9 14
245 517 282 559 8 8 14 21 14 28 0 14 57 132 71 146 15 15 10 45 -12 76 -17
25 -26 29 -62 27 -23 -1 -161 -5 -307 -9z m-93 -100 c63 -7 138 -8 211 -2 62
5 118 5 125 1 8 -5 5 -19 -11 -51 -12 -24 -22 -52 -22 -61 0 -9 -4 -16 -10
-16 -5 0 -10 -7 -10 -15 0 -19 -89 -189 -101 -193 -5 -2 -9 -8 -9 -13 0 -10
-30 -77 -49 -109 -5 -8 -17 -33 -27 -55 -11 -22 -28 -56 -40 -75 -24 -41 -94
-204 -94 -219 0 -14 38 -24 102 -26 38 -1 64 -7 76 -18 21 -19 51 -21 96 -8
48 15 202 32 220 25 26 -10 19 -26 -34 -84 -28 -30 -83 -98 -122 -150 -40 -52
-99 -127 -132 -167 -91 -107 -141 -169 -208 -258 -75 -100 -119 -147 -134
-141 -8 3 -10 -3 -6 -16 4 -17 1 -20 -15 -16 -16 4 -19 1 -16 -11 3 -12 -7
-23 -31 -36 -20 -11 -36 -24 -36 -28 0 -16 -102 -138 -109 -131 -3 4 0 9 7 11
6 3 12 15 12 27 0 21 44 145 76 214 8 18 22 70 30 115 8 45 19 91 23 102 28
65 54 157 64 225 3 21 -39 27 -185 29 -89 1 -128 5 -128 12 0 8 -17 10 -57 5
-116 -13 -108 -14 -107 21 2 28 79 240 104 285 6 10 10 24 10 32 0 7 7 19 15
26 8 7 15 23 15 35 0 13 20 70 45 128 25 58 45 111 45 117 0 5 4 18 10 28 16
31 38 86 58 147 11 33 31 86 46 117 14 31 26 63 26 70 1 7 13 38 29 68 26 52
30 55 72 61 70 10 73 10 176 -2z"/>
<path d="M4860 8869 c0 -11 5 -17 10 -14 6 3 10 13 10 21 0 8 -4 14 -10 14 -5
0 -10 -9 -10 -21z"/>
<path d="M4830 8790 c0 -16 5 -30 10 -30 6 0 10 14 10 30 0 17 -4 30 -10 30
-5 0 -10 -13 -10 -30z"/>
<path d="M4800 8719 c0 -17 4 -28 10 -24 6 3 10 17 10 31 0 13 -4 24 -10 24
-5 0 -10 -14 -10 -31z"/>
<path d="M5230 8699 c0 -5 5 -7 10 -4 6 3 10 8 10 11 0 2 -4 4 -10 4 -5 0 -10
-5 -10 -11z"/>
<path d="M4777 8673 c-10 -9 -9 -53 2 -53 12 0 20 35 12 49 -4 6 -10 8 -14 4z"/>
<path d="M4746 8593 c-3 -3 -6 -19 -6 -34 0 -15 -7 -29 -15 -33 -19 -7 -21
-70 -2 -64 6 3 13 17 15 33 2 15 10 34 18 42 8 8 14 23 14 33 0 20 -13 33 -24
23z"/>
<path d="M4690 8419 c0 -17 4 -28 10 -24 6 3 10 17 10 31 0 13 -4 24 -10 24
-5 0 -10 -14 -10 -31z"/>
<path d="M4660 8349 c0 -11 5 -17 10 -14 6 3 10 13 10 21 0 8 -4 14 -10 14 -5
0 -10 -9 -10 -21z"/>
<path d="M5170 7800 c0 -5 5 -10 10 -10 6 0 10 5 10 10 0 6 -4 10 -10 10 -5 0
-10 -4 -10 -10z"/>
<path d="M5145 7770 c-3 -5 -1 -10 4 -10 6 0 11 5 11 10 0 6 -2 10 -4 10 -3 0
-8 -4 -11 -10z"/>
<path d="M5090 7684 c0 -8 5 -12 10 -9 6 3 10 10 10 16 0 5 -4 9 -10 9 -5 0
-10 -7 -10 -16z"/>
<path d="M5060 7655 c0 -8 5 -15 10 -15 6 0 10 7 10 15 0 8 -4 15 -10 15 -5 0
-10 -7 -10 -15z"/>
<path d="M5000 7570 c0 -5 5 -10 10 -10 6 0 10 5 10 10 0 6 -4 10 -10 10 -5 0
-10 -4 -10 -10z"/>
<path d="M8842 9132 c-18 -10 -65 -50 -105 -89 -40 -40 -117 -116 -172 -170
-56 -54 -147 -152 -204 -218 -57 -66 -191 -210 -299 -320 -109 -110 -264 -274
-347 -364 -82 -90 -164 -178 -180 -195 -63 -64 -125 -164 -125 -201 0 -7 -7
-26 -15 -41 -8 -16 -15 -37 -15 -46 0 -9 -4 -20 -10 -23 -5 -3 -10 -17 -10
-30 0 -13 -6 -44 -14 -67 -8 -24 -21 -70 -31 -103 -9 -33 -23 -83 -31 -112 -9
-28 -14 -71 -12 -95 3 -38 6 -43 29 -46 14 -2 56 11 93 28 37 16 75 30 83 30
8 0 27 6 41 13 48 25 96 45 147 63 49 16 136 54 222 96 24 12 64 44 90 72 27
27 91 95 144 150 53 56 107 114 120 130 13 16 75 81 138 145 62 64 157 163
211 221 101 109 359 366 444 441 28 25 57 63 68 89 11 25 35 61 53 80 148 151
162 250 53 392 -61 81 -137 146 -201 173 -48 20 -124 18 -165 -3z m133 -63
c34 -9 59 -27 118 -87 104 -107 141 -189 102 -222 -8 -7 -15 -19 -15 -27 0
-20 -78 -123 -94 -123 -7 0 -37 28 -67 62 -80 93 -117 128 -194 187 -38 29
-74 60 -78 68 -11 18 92 123 137 140 40 15 40 15 91 2z m-247 -230 c111 -74
282 -261 282 -308 0 -28 -14 -34 -32 -13 -54 62 -239 240 -264 252 -16 8 -35
21 -42 28 -7 6 -18 12 -23 12 -20 0 -7 -18 29 -43 36 -24 141 -125 230 -220
27 -29 42 -55 42 -71 0 -33 -13 -33 -39 0 -70 88 -141 153 -276 252 -48 35
-58 66 -26 77 11 3 23 16 27 28 14 45 32 46 92 6z m-95 -148 c78 -64 98 -84
173 -176 88 -106 98 -125 65 -125 -10 0 -30 17 -46 40 -35 50 -172 183 -247
238 -44 32 -55 46 -51 62 8 32 28 24 106 -39z m-128 -77 c14 -15 25 -30 25
-34 0 -4 -24 -32 -53 -61 -29 -30 -77 -81 -107 -114 -30 -33 -119 -128 -199
-210 -81 -83 -179 -188 -220 -235 -41 -47 -121 -134 -178 -194 -57 -60 -103
-112 -103 -117 0 -15 -37 -10 -50 6 -7 8 -23 15 -36 15 -24 0 -32 14 -14 25 5
3 51 52 101 108 51 56 153 165 228 242 75 77 147 154 159 170 38 49 404 425
414 425 5 0 20 -12 33 -26z m144 -120 l66 -65 -40 -37 c-22 -21 -103 -105
-180 -187 -77 -83 -160 -171 -185 -196 -25 -25 -83 -88 -130 -140 -47 -51
-147 -156 -222 -233 l-137 -139 -46 6 c-69 10 -105 32 -105 65 0 38 25 69 187
237 151 157 378 395 494 520 41 44 89 95 107 115 19 19 50 54 70 77 21 24 41
43 46 43 5 0 39 -30 75 -66z m106 -134 c3 -11 15 -25 26 -30 10 -6 19 -15 19
-19 0 -19 -267 -300 -763 -805 l-148 -151 -24 28 c-14 15 -25 34 -25 41 0 8
49 62 108 122 59 60 141 147 182 194 40 47 115 129 166 182 51 54 120 130 155
170 98 116 268 288 284 288 7 0 17 -9 20 -20z m-1164 -760 c15 -9 19 -22 19
-65 0 -67 20 -85 95 -85 27 0 56 -4 64 -9 14 -9 12 -58 -4 -93 -6 -15 -2 -18
18 -18 14 0 28 -4 31 -9 9 -14 -5 -41 -21 -41 -8 0 -27 -7 -41 -14 -15 -8 -43
-21 -62 -29 -19 -8 -48 -20 -65 -27 -58 -24 -87 -29 -106 -19 -11 5 -19 16
-19 23 0 8 -21 31 -46 53 l-46 39 11 49 c7 28 18 77 26 110 19 82 33 118 52
133 20 15 67 16 94 2z"/>
<path d="M9130 8829 c0 -11 4 -18 10 -14 5 3 7 12 3 20 -7 21 -13 19 -13 -6z"/>
<path d="M9100 8761 c0 -46 -26 -70 -32 -29 -4 27 -28 36 -28 10 0 -23 28 -82
39 -82 15 0 41 37 41 58 0 11 5 24 10 27 18 11 11 35 -10 35 -13 0 -20 -7 -20
-19z"/>
<path d="M8721 8304 c-30 -35 -17 -45 15 -12 14 14 22 28 17 31 -6 4 -20 -5
-32 -19z"/>
<path d="M8620 8189 c0 -5 5 -7 10 -4 6 3 10 8 10 11 0 2 -4 4 -10 4 -5 0 -10
-5 -10 -11z"/>
<path d="M8590 8159 c0 -5 5 -7 10 -4 6 3 10 8 10 11 0 2 -4 4 -10 4 -5 0 -10
-5 -10 -11z"/>
<path d="M8560 8125 c0 -8 2 -15 4 -15 2 0 6 7 10 15 3 8 1 15 -4 15 -6 0 -10
-7 -10 -15z"/>
<path d="M8449 8012 c-52 -54 -108 -115 -126 -135 -17 -20 -36 -37 -42 -37 -6
0 -11 -7 -11 -15 0 -8 3 -15 6 -15 13 0 274 271 274 285 0 8 -2 15 -3 15 -2 0
-46 -44 -98 -98z"/>
<path d="M4894 5949 c-241 -54 -439 -241 -522 -491 -29 -88 -32 -109 -32 -217
0 -112 2 -126 35 -218 41 -111 59 -145 160 -295 95 -140 133 -222 145 -311 9
-77 30 -137 61 -176 19 -23 18 -24 -6 -53 -25 -29 -25 -30 -7 -56 15 -23 18
-45 16 -137 -2 -120 7 -150 50 -179 14 -9 36 -16 49 -16 15 0 34 -13 54 -38
21 -26 49 -45 88 -60 104 -40 164 -25 250 63 22 23 59 52 82 65 54 30 83 95
64 147 -8 22 -9 38 -3 46 5 7 10 60 10 119 1 76 5 115 16 136 9 17 18 57 22
89 16 149 36 192 208 436 54 78 90 153 117 247 26 88 27 312 2 385 -56 170
-75 205 -150 285 -197 209 -445 289 -709 229z m329 -89 c42 -11 91 -29 109
-40 18 -10 48 -27 66 -36 61 -31 175 -156 214 -235 62 -128 63 -132 63 -304 0
-165 -5 -193 -51 -285 -17 -34 -92 -150 -103 -160 -16 -14 -71 -102 -71 -114
0 -7 -7 -19 -15 -26 -8 -7 -15 -19 -15 -28 0 -8 -6 -23 -13 -31 -14 -16 -47
-142 -47 -177 0 -11 -8 -41 -18 -69 -21 -58 -48 -76 -107 -73 l-40 3 -12 115
c-16 161 -16 278 2 336 8 27 15 61 15 76 0 15 4 30 10 33 5 3 12 28 16 56 5
40 12 52 33 63 14 8 35 23 45 35 11 12 25 21 32 21 17 0 58 56 72 98 19 55
-11 102 -64 102 -41 0 -75 -35 -117 -121 -37 -74 -62 -85 -101 -46 -24 24 -24
24 -9 91 18 79 7 118 -39 142 -24 12 -33 13 -56 2 -41 -20 -51 -73 -29 -155
19 -74 15 -88 -37 -101 -49 -13 -60 -5 -80 60 -10 33 -28 69 -40 79 -68 64
-151 7 -125 -85 10 -38 63 -90 132 -131 25 -14 48 -34 51 -43 46 -158 54 -254
36 -452 -16 -182 -15 -180 -48 -180 -54 1 -112 57 -112 109 0 71 -70 269 -111
316 -16 18 -29 37 -29 43 0 5 -7 16 -16 23 -21 17 -117 164 -137 209 -46 107
-49 123 -49 260 0 136 3 154 48 257 8 17 14 34 14 37 0 19 96 134 158 189 121
109 237 154 398 156 71 1 123 -5 177 -19z m-145 -664 c4 -55 -9 -76 -33 -56
-9 7 -15 29 -15 55 0 46 6 57 30 53 10 -2 16 -18 18 -52z m288 -40 c11 -28
-47 -106 -78 -106 -21 0 9 92 37 112 16 12 35 9 41 -6z m-565 -23 c21 -26 49
-90 42 -97 -22 -22 -93 38 -93 79 0 38 27 47 51 18z m315 -150 c32 -15 54 -33
54 -42 0 -30 -49 -250 -60 -271 -9 -17 -19 -21 -57 -18 l-45 3 -19 70 c-10 39
-18 81 -19 95 0 14 -7 43 -14 65 -15 41 -7 75 17 75 7 1 26 12 42 25 17 14 34
25 38 25 5 0 33 -12 63 -27z m-5 -514 c3 -62 9 -124 13 -137 5 -14 3 -29 -4
-37 -15 -18 -78 -31 -90 -19 -5 5 -12 75 -16 157 -6 134 -5 149 11 167 18 19
19 20 49 2 l31 -18 6 -115z m-123 -147 c2 -13 -3 -25 -13 -28 -23 -9 -36 7
-28 34 7 29 37 25 41 -6z m290 -143 c-7 -5 -34 -9 -61 -9 -26 0 -55 -4 -65 -9
-17 -10 -158 -29 -283 -38 -62 -5 -68 -3 -74 16 -3 11 -3 25 0 31 4 6 74 10
178 11 95 1 199 4 232 8 68 8 95 4 73 -10z m22 -95 c11 -12 11 -18 -2 -31 -12
-12 -51 -17 -170 -23 -117 -6 -169 -13 -221 -31 -64 -21 -69 -21 -85 -5 -13
13 -14 20 -6 34 8 13 31 19 87 23 41 4 104 11 139 17 34 7 99 15 143 20 44 5
85 10 91 10 6 1 17 -5 24 -14z m7 -130 c12 -33 -20 -45 -148 -54 -161 -12
-349 -12 -349 -1 0 11 94 28 230 42 58 6 119 14 135 19 54 15 125 12 132 -6z"/>
<path d="M4645 5634 c-41 -42 -75 -82 -75 -89 0 -7 -7 -18 -15 -25 -8 -7 -15
-26 -15 -42 0 -16 -7 -36 -15 -45 -17 -16 -16 -48 0 -48 6 0 11 12 13 27 2 14
10 32 18 38 8 7 14 16 14 20 0 17 75 118 126 171 49 49 58 69 32 69 -4 0 -42
-34 -83 -76z"/>
<path d="M5346 4591 c-4 -7 -5 -15 -2 -18 9 -9 19 4 14 18 -4 11 -6 11 -12 0z"/>
<path d="M5322 4515 c0 -16 2 -22 5 -12 2 9 2 23 0 30 -3 6 -5 -1 -5 -18z"/>
<path d="M8455 5870 c-22 -4 -58 -11 -79 -16 -49 -9 -163 -65 -194 -94 -44
-42 -28 -53 106 -72 161 -22 244 -60 275 -125 l21 -44 -49 -96 c-42 -81 -68
-116 -159 -210 -60 -62 -114 -113 -121 -113 -18 0 -196 184 -217 225 -16 31
-18 44 -9 84 12 58 -7 150 -46 223 -31 57 -111 126 -191 164 -49 24 -70 28
-147 28 -107 0 -148 -15 -153 -56 -3 -28 29 -69 135 -170 57 -55 68 -84 48
-132 -13 -30 -26 -42 -71 -62 -30 -13 -60 -24 -67 -24 -14 0 -66 48 -155 143
-79 84 -101 87 -125 20 -10 -28 -17 -77 -17 -119 0 -234 189 -404 449 -404
l86 0 98 -98 c53 -53 97 -101 97 -106 0 -5 -118 -129 -263 -275 -262 -265
-313 -324 -337 -391 -11 -33 -10 -41 14 -92 39 -83 63 -108 133 -139 70 -32
105 -36 154 -15 39 17 121 93 194 180 51 59 63 73 177 206 35 41 71 85 79 97
34 50 109 123 126 123 10 0 66 -51 124 -113 434 -459 419 -444 487 -470 90
-36 205 -10 258 57 31 38 64 119 64 156 0 56 -71 149 -205 268 -265 237 -445
413 -445 435 0 20 139 186 217 259 124 115 218 116 230 3 5 -43 12 -57 57
-103 57 -60 85 -75 122 -66 33 8 250 247 257 282 8 41 -13 76 -76 131 -55 49
-61 51 -116 51 -73 0 -91 17 -91 83 0 43 -5 52 -52 105 -131 143 -274 241
-394 271 -61 16 -181 21 -229 11z m137 -71 c91 -18 161 -40 208 -66 53 -30
176 -137 226 -199 34 -41 35 -46 24 -73 -10 -25 -9 -34 13 -68 30 -47 42 -57
90 -74 31 -11 42 -11 58 -1 24 15 42 6 96 -48 l33 -32 -21 -29 c-11 -16 -25
-32 -32 -36 -7 -5 -37 -35 -67 -68 -58 -64 -90 -85 -90 -60 0 8 -13 21 -29 29
-36 19 -44 49 -22 78 31 40 32 55 5 50 -17 -3 -36 7 -70 37 -41 35 -53 41 -93
41 -25 0 -66 -10 -91 -21 -24 -11 -54 -18 -65 -15 -31 8 -155 130 -155 152 0
11 8 31 18 44 12 18 17 44 17 96 0 69 -1 71 -40 107 -61 56 -144 96 -214 104
-86 9 -75 32 24 51 71 13 116 14 177 1z m-857 -57 c41 -17 131 -78 151 -103 7
-8 24 -35 38 -61 24 -43 26 -57 26 -161 l0 -115 43 -48 c49 -56 72 -81 146
-158 46 -47 52 -56 37 -62 -11 -4 -21 -1 -26 7 -5 7 -12 11 -15 7 -4 -3 0 -16
7 -27 15 -25 6 -44 -35 -75 -24 -18 -27 -18 -51 -3 -13 9 -45 37 -70 63 -70
70 -75 47 -7 -28 60 -65 75 -98 47 -98 -8 0 -22 9 -30 21 -24 35 -132 145
-172 176 -35 26 -45 28 -153 33 -112 5 -116 6 -119 28 -2 13 -9 21 -15 19 -7
-2 -11 -11 -9 -21 2 -9 -2 -16 -8 -16 -5 0 -10 4 -10 9 0 5 -12 11 -28 14 -53
11 -122 97 -159 197 -17 46 -17 120 0 120 6 0 47 -32 90 -70 42 -38 89 -73
104 -76 29 -8 117 17 168 47 38 23 59 74 70 170 l7 57 -86 68 c-77 62 -98 89
-81 106 10 10 99 -3 140 -20z m889 -483 c25 -22 46 -47 46 -55 0 -8 5 -14 10
-14 27 0 2 -38 -87 -133 -54 -57 -120 -130 -147 -163 -26 -32 -81 -95 -121
-139 -41 -44 -128 -144 -195 -223 -67 -79 -135 -157 -151 -175 -16 -18 -50
-57 -76 -87 -25 -30 -76 -88 -112 -129 -36 -41 -73 -82 -82 -92 -9 -11 -19
-19 -22 -19 -3 0 -18 -11 -33 -25 -48 -45 -122 -25 -177 47 -31 40 -41 76 -30
106 8 20 1111 1141 1124 1142 3 0 27 -18 53 -41z m-117 -521 c76 -64 206 -179
273 -242 41 -39 121 -114 178 -165 57 -52 110 -107 118 -122 8 -16 14 -54 14
-85 0 -55 -2 -59 -45 -101 -35 -33 -53 -43 -79 -43 -66 0 -153 47 -198 107
-12 15 -61 69 -109 118 -48 50 -106 113 -129 140 -23 28 -84 93 -136 146 -51
53 -91 99 -88 102 9 9 34 -4 68 -35 17 -17 46 -43 64 -60 17 -17 32 -35 32
-39 0 -5 6 -9 14 -9 8 0 16 -6 19 -12 2 -8 8 -9 13 -4 5 5 4 11 -3 13 -7 3
-13 10 -13 16 0 7 -14 21 -30 32 -16 11 -30 23 -30 27 0 4 -13 21 -30 38 -50
51 -63 76 -51 99 17 31 66 61 102 61 26 0 30 3 21 12 -12 12 -16 28 -7 28 3 0
17 -10 32 -22z"/>
<path d="M9150 5125 c0 -8 -4 -15 -10 -15 -5 0 -10 -10 -10 -21 0 -21 1 -21
26 4 14 14 23 31 19 37 -9 15 -25 12 -25 -5z"/>
<path d="M7875 5090 c3 -5 8 -10 11 -10 2 0 4 5 4 10 0 6 -5 10 -11 10 -5 0
-7 -4 -4 -10z"/>
<path d="M8560 5094 c0 -8 5 -12 10 -9 6 4 8 11 5 16 -9 14 -15 11 -15 -7z"/>
<path d="M8500 5039 c0 -7 -8 -18 -17 -25 -15 -11 -15 -13 -3 -13 8 0 23 11
33 24 15 22 16 25 2 25 -8 0 -15 -5 -15 -11z"/>
<path d="M8420 4949 c0 -5 5 -7 10 -4 6 3 10 8 10 11 0 2 -4 4 -10 4 -5 0 -10
-5 -10 -11z"/>
<path d="M8277 4793 c-12 -11 -8 -23 8 -23 8 0 15 7 15 15 0 16 -12 20 -23 8z"/>
<path d="M8130 4610 c0 -5 -5 -10 -10 -10 -12 0 -72 -65 -80 -86 -3 -7 -34
-43 -70 -81 -36 -37 -76 -81 -88 -97 -19 -25 -74 -87 -179 -205 -18 -20 -33
-41 -33 -46 0 -6 -9 -17 -20 -25 -11 -8 -20 -18 -20 -22 0 -4 9 -8 20 -8 11 0
20 7 20 15 0 8 12 27 28 42 26 27 53 57 192 212 36 40 79 88 95 107 48 53 55
63 55 72 0 6 20 30 45 55 25 26 45 51 45 57 0 5 5 10 10 10 6 0 10 5 10 10 0
6 -4 10 -10 10 -5 0 -10 -4 -10 -10z"/>
<path d="M7595 4010 c4 -6 11 -8 16 -5 14 9 11 15 -7 15 -8 0 -12 -5 -9 -10z"/>
<path d="M8415 4680 c-4 -6 -3 -16 3 -22 6 -6 12 -6 17 2 4 6 3 16 -3 22 -6 6
-12 6 -17 -2z"/>
<path d="M8615 4580 c3 -5 8 -10 11 -10 2 0 4 5 4 10 0 6 -5 10 -11 10 -5 0
-7 -4 -4 -10z"/>
<path d="M8645 4550 c3 -5 8 -10 11 -10 2 0 4 5 4 10 0 6 -5 10 -11 10 -5 0
-7 -4 -4 -10z"/>
<path d="M8560 4360 c0 -5 5 -10 11 -10 5 0 7 5 4 10 -3 6 -8 10 -11 10 -2 0
-4 -4 -4 -10z"/>
<path d="M8590 4330 c0 -5 5 -10 11 -10 5 0 7 5 4 10 -3 6 -8 10 -11 10 -2 0
-4 -4 -4 -10z"/>
<path d="M8890 4253 c-32 -13 -80 -79 -80 -112 0 -29 46 -78 84 -91 48 -16
100 7 123 54 15 33 15 38 -2 76 -26 57 -81 90 -125 73z m70 -75 c25 -28 25
-49 0 -71 -23 -20 -61 -22 -78 -5 -29 29 -1 98 39 98 10 0 27 -10 39 -22z"/>
<path d="M2550 5648 c0 -18 5 -40 10 -48 7 -11 10 -2 10 33 0 26 -4 47 -10 47
-5 0 -10 -15 -10 -32z"/>
<path d="M2580 5492 c0 -41 3 -52 16 -52 14 0 16 8 11 41 -9 66 -27 73 -27 11z"/>
<path d="M10842 4560 c0 -14 2 -19 5 -12 2 6 2 18 0 25 -3 6 -5 1 -5 -13z"/>
<path d="M10807 4506 c-6 -15 1 -26 15 -26 4 0 8 9 8 20 0 23 -15 27 -23 6z"/>
<path d="M10778 4448 c-7 -18 2 -39 13 -32 12 7 12 44 0 44 -5 0 -11 -6 -13
-12z"/>
<path d="M2610 4415 c0 -8 5 -15 10 -15 6 0 10 7 10 15 0 8 -4 15 -10 15 -5 0
-10 -7 -10 -15z"/>
<path d="M10739 4366 c-28 -61 -19 -80 14 -31 29 42 33 60 17 70 -5 3 -19 -14
-31 -39z"/>
<path d="M10695 4279 c-4 -11 -4 -23 -2 -26 9 -8 27 7 27 22 0 23 -18 27 -25
4z"/>
<path d="M9701 3084 c0 -11 3 -14 6 -6 3 7 2 16 -1 19 -3 4 -6 -2 -5 -13z"/>
<path d="M4498 1793 c6 -2 18 -2 25 0 6 3 1 5 -13 5 -14 0 -19 -2 -12 -5z"/>
</g>
</svg>
